<svg xmlns="http://www.w3.org/2000/svg" viewBox="0 0 600 600"><circle cx="300" cy="300" r="300" fill="#1a171b"/><path d="M94.176 257.851h79.455v-19.874H94.176v19.874zm0 49.488h79.455v-19.93H94.176v19.93zm0 49.686h79.455V336.84H94.176v20.184zM200.69 337.19v19.835c28.408 0 51.519-23.113 51.519-51.522h-19.835c0 17.472-14.213 31.687-31.684 31.687zm31.684-47.691h19.835c0-17.472 14.212-31.687 31.684-31.687v-19.835c-28.408 0-51.519 23.114-51.519 51.522zm114.695-9.177h-19.874v56.674H307.53v19.874h19.666v.155h19.874v-.155h19.665v-19.874H347.07v-56.674zm-39.54-22.47h59.205v-19.875H307.53v19.874zm142.768 18.197l-31.389-38.082h-25.736l43.042 52.165 14.083-14.083zm22.859 27.67l-14.083 14.082 32.33 39.224h25.736l-43.983-53.306zm-80.926 53.306h25.736l32.38-39.224-14.132-14.082-43.984 53.306zm123.967-119.058h-25.735L459.074 276l14.083 14.132 43.041-52.165z" fill="#fff"/></svg>