<svg xmlns="http://www.w3.org/2000/svg" width="600" height="402.955" viewBox="0 0 600 402.955"><path d="M253.707 347.97h-7.991v41.942l22.825-.065.448-2.94h-15.282v-38.936zm50.955 34.527l-9.014-22.313h-8.312c-.084 0-.04.146.13.447.17.297.255.47.255.508l12.977 29.732c-.725 1.747-1.353 3.163-1.885 4.252-.533 1.084-.992 1.906-1.375 2.462-.426.593-.822 1.02-1.183 1.278-.362.254-.82.383-1.375.383-.809 0-1.747-.043-2.812-.13s-1.941-.172-2.621-.253c-.682-.086-1.067-.13-1.151-.13v3.71c1.065.211 1.938.34 2.62.383.384.086.747.13 1.087.13h.96c2.515 0 4.56-.75 6.137-2.239.809-.727 1.63-1.897 2.461-3.52.833-1.618 1.736-3.662 2.718-6.136l12.148-30.877h-4.284l-7.481 22.313zm54.597 3.576c-.47.043-.938.077-1.405.099-.471.021-1.003.03-1.599.03-4.092 0-7.12-.981-9.078-2.94-2.005-2.005-3.006-4.944-3.006-8.821 0-3.37.596-6.158 1.79-8.379.596-1.106 1.225-1.936 1.887-2.492.659-.555 1.524-.83 2.589-.83.895 0 1.896.086 3.004.254 1.108.172 2.143.366 3.1.576.96.216 2.1.491 3.424.831v-3.451a16.904 16.904 0 0 0-1.825-.543 19.254 19.254 0 0 0-1.822-.352 13.923 13.923 0 0 0-1.885-.254 26.248 26.248 0 0 0-1.823-.065c-5.028 0-8.994 1.446-11.89 4.347-2.9 2.9-4.349 6.799-4.349 11.7 0 4.476 1.257 8.057 3.772 10.738 1.278 1.407 2.74 2.444 4.379 3.102 1.642.659 3.486.99 5.532.99 1.106 0 2.173-.108 3.195-.318a18.967 18.967 0 0 0 3.006-.895c1.96-.81 3.774-2.066 5.435-3.775-.383.086-.766.164-1.149.224-.387.065-.813.142-1.282.224zm45.461 0a16.84 16.84 0 0 1-1.63.164c-.491.021-.952.03-1.378.03-3.92 0-6.924-1.025-9.011-3.069-.512-.512-.96-.99-1.343-1.437a6.512 6.512 0 0 1-.96-1.472 7.289 7.289 0 0 1-.576-1.82c-.13-.684-.194-1.515-.194-2.496v-.512l18.797-1.661v-.319c0-4.221-1.084-7.544-3.257-9.975-2.135-2.427-5.031-3.645-8.698-3.645-4.346 0-7.883 1.472-10.612 4.41-2.728 2.901-4.092 6.693-4.092 11.383 0 4.648 1.3 8.289 3.899 10.931 2.599 2.728 6.098 4.093 10.487 4.093 2.302 0 4.497-.426 6.584-1.278 2.13-.896 4.093-2.174 5.883-3.835-.727.125-1.42.224-2.079.284a36.38 36.38 0 0 0-1.82.224zm-13.556-21.095c1.025-1.704 2.432-2.557 4.218-2.557 1.536 0 2.728.766 3.58 2.298.852 1.45 1.283 3.58 1.283 6.395l-10.617 1.537c.043-3.37.555-5.926 1.536-7.673zm6.585-18.48l-7.927 9.593h2.879l14.192-9.592h-9.144zm54.98 39.575c-.598.086-1.14.142-1.631.164-.49.021-.947.03-1.373.03-3.925 0-6.928-1.025-9.015-3.069-.513-.512-.96-.99-1.343-1.437a6.82 6.82 0 0 1-.96-1.472 7.469 7.469 0 0 1-.576-1.82c-.125-.684-.19-1.515-.19-2.496v-.512l18.797-1.661v-.319c0-4.221-1.088-7.544-3.262-9.975-2.13-2.427-5.03-3.645-8.692-3.645-4.351 0-7.889 1.472-10.617 4.41-2.728 2.901-4.088 6.693-4.088 11.383 0 4.648 1.3 8.289 3.899 10.931 2.599 2.728 6.093 4.093 10.483 4.093 2.302 0 4.497-.426 6.584-1.278 2.135-.896 4.093-2.174 5.883-3.835-.723.125-1.416.224-2.079.284-.658.065-1.265.142-1.82.224zm-13.556-21.095c1.024-1.704 2.432-2.557 4.222-2.557 1.536 0 2.728.766 3.58 2.298.852 1.45 1.278 3.58 1.278 6.395l-10.612 1.537c.043-3.37.555-5.926 1.532-7.673zm-179.586-116.81a7.078 7.078 0 1 0-14.156.001 7.078 7.078 0 0 0 14.156 0zm193.05 0a7.078 7.078 0 1 0-14.156.001 7.078 7.078 0 0 0 14.156 0zm-22.875-4.903c-.142-.465-13.754-47.028 20.14-85.324 33.717-38.092 21.065-50.864 7.673-64.388-1.11-1.12-2.234-2.252-3.344-3.414-.81-.848-1.847-1.693-3.043-2.53 9.993-28.911-.333-52.224-30.132-67.538C350.09-16.396 179.202 1.17 155.288 38.1c-3.789 5.85-5.603 14.988 7.273 25.289 9.868 7.89 20.013 15.632 29.823 23.12 44.486 33.95 86.507 66.018 91.16 103.247 2.226 17.803-4.07 35.761-19.246 54.911l-3.497 4.416 5.565-.87c.774-.12 47.106-7.893 95.659-42.967 31.205 22.388 62.018 39.211 64.578 40.596l4.716 2.556-1.557-5.133zm-158.432-.573c13.349-18.393 18.78-35.938 16.587-53.483-4.884-39.066-47.617-71.677-92.859-106.203-9.792-7.473-19.916-15.2-29.743-23.06-8.39-6.71-10.46-13.072-6.328-19.451C169.15 24.8 213.763 10.98 270.004 6.1c13.823-1.199 27.361-1.786 40.418-1.786 44.738 0 83.746 6.896 108.62 19.677 27.64 14.204 37.117 34.827 28.298 61.312-24.221-12.754-91.38-20.273-141.312 19.127-8.303 6.552-12.103 14.66-11.29 24.097 2.007 23.314 32.416 51.232 63.541 74.003-37.508 26.782-73.421 37.033-86.95 40.162zm27.797-114.544c-.686-7.978 2.464-14.603 9.63-20.258 27.309-21.55 59.793-28.74 87.042-28.74 21.886 0 40.38 4.642 50.102 10.21-20.536 52.17-52.481 87.116-83.81 110.38-30.804-22.35-61.073-49.625-62.964-71.592zm125.268 111.42c-9.618-5.436-33.912-19.577-58.581-37.144 31.356-23.535 63.15-58.607 83.806-110.555.53.436 1.008.874 1.426 1.312a261.3 261.3 0 0 0 3.396 3.473c12.931 13.054 23.143 23.365-7.837 58.37-28.871 32.615-24.813 71.048-22.21 84.544zM247.287 344.613h9.871v-73.68c0-7.58-9.87-10.18-9.87-10.18v83.86zm193.337-73.68v73.68h9.87v-83.86s-9.87 2.6-9.87 10.18z" fill="#ea9032"/><path d="M23.352 251.583H8.071v-38.937H.08v41.94l22.825-.064.447-2.939zm51.4-22.89c-2.642-2.771-6.244-4.157-10.803-4.157-4.775 0-8.568 1.407-11.38 4.222-2.856 2.814-4.285 6.562-4.285 11.253 0 4.73 1.321 8.525 3.964 11.378 2.685 2.815 6.308 4.222 10.868 4.222 4.775 0 8.568-1.407 11.38-4.222 2.899-2.896 4.327-6.713 4.284-11.442-.086-4.816-1.428-8.568-4.028-11.254zm-6.136 21.035c-1.195 2.303-2.877 3.452-5.053 3.452-2.087 0-3.75-1.192-4.985-3.58-1.237-2.346-1.855-5.604-1.855-9.783 0-4.092.596-7.246 1.79-9.463 1.192-2.302 2.834-3.451 4.923-3.451 2.174 0 3.878 1.149 5.115 3.451.64 1.154 1.108 2.54 1.407 4.157.297 1.618.448 3.452.448 5.5 0 4.217-.598 7.458-1.79 9.717zm46.35 5.306c.638 0 1.331-.086 2.078-.258a15.665 15.665 0 0 0 2.397-.766c.895-.34 1.842-.766 2.845-1.278a79.54 79.54 0 0 0 3.292-1.79v4.092l7.673-1.725v-29.027l-7.673 1.726V250.3a1.193 1.193 0 0 1-.383.064c-.13 0-.3.022-.512.065-.683.086-1.257.15-1.726.193-.47.043-.83.065-1.087.065-2.388-.043-4.092-.598-5.114-1.666-1.025-1.062-1.535-2.853-1.535-5.37v-19.37l-7.672 1.726v19.116c0 3.283.617 5.775 1.854 7.479 1.278 1.665 3.133 2.474 5.562 2.431zm53.64-36.57c1.533 0 2.706-.297 3.517-.895.766-.555 1.15-1.45 1.15-2.685-.087-1.322-.47-2.238-1.15-2.75-.725-.594-1.898-.895-3.518-.895-1.704.086-2.877.383-3.516.895-.766.598-1.15 1.514-1.15 2.75 0 1.278.384 2.194 1.15 2.75.769.555 1.939.83 3.516.83zm-3.708 36.058h7.673v-30.304l-7.673 1.984v28.32zm44.017.83c.788.087 1.567.13 2.333.13 3.537 0 6.37-.874 8.503-2.62 2.09-1.791 3.133-4.093 3.133-6.908 0-1.747-.447-3.258-1.343-4.54-.98-1.36-2.515-2.62-4.602-3.77l-4.349-2.431c-1.32-.766-2.259-1.446-2.812-2.044-.512-.766-.768-1.537-.768-2.303 0-.98.342-1.79 1.024-2.427.682-.684 1.556-1.024 2.62-1.024 1.791 0 3.454.108 4.989.319 1.534.215 2.876.748 4.028 1.6v-3.58a33.45 33.45 0 0 0-2.079-.547 21.126 21.126 0 0 0-2.079-.348 18.826 18.826 0 0 0-2.108-.258 33.54 33.54 0 0 0-2.111-.065c-3.537 0-6.287.792-8.248 2.367-2.046 1.622-3.046 3.796-3.003 6.52 0 1.622.426 3.094 1.278 4.41.768 1.197 2.11 2.389 4.028 3.581l4.41 2.685.321.194c2.43 1.493 3.643 2.96 3.643 4.411 0 1.067-.383 1.984-1.151 2.75-.725.723-1.64 1.084-2.748 1.084-2.003 0-3.88-.159-5.626-.477-1.748-.319-3.22-.969-4.411-1.95v3.71c1.534.55 3.111.955 4.731 1.213.81.13 1.608.233 2.397.319zM0 275.885h24.252v68.6h9.88v-68.6h24.252v-4.94H0v4.94zm132.317 28.276h-43.67v-33.227h-9.871v73.68h9.87v-35.606h43.67v35.606h9.872v-73.68h-9.871v33.227zm88.178 17.626c0 1.499-.044 2.865-.089 4.099a37.154 37.154 0 0 1-.352 3.128c-.176.882-.308 1.719-.529 2.512-.176.793-.44 1.499-.837 2.16-1.19 2.644-3.217 4.626-6.037 5.992a18.59 18.59 0 0 1-4.583 1.455h-.044c-1.763.352-3.658.528-5.729.528h-12.647c-3.437 0-6.302-.484-8.593-1.542-1.763-.749-3.217-1.807-4.319-3.173-2.6-3.04-3.922-8.372-3.922-15.908v-50.104h-9.87v52.352c0 8.064 2.026 13.88 6.036 17.494.353.309.75.617 1.146.881 4.143 3.085 10.312 4.627 18.508 4.627h12.648c.352 0 .66 0 1.013-.043 5.552-.044 10.312-.97 14.278-2.645 4.098-1.894 7.05-4.582 8.857-8.108.881-1.718 1.498-3.613 1.807-5.729a91.86 91.86 0 0 0 .396-3.965c.133-1.63.177-3.526.177-5.685v-49.179h-7.315v50.853zm69.185-50.853l-10.004-.088v73.768l23.885-.088v.088l37.721-.132.132-4.275H289.68v-69.273zm80.466 0l-10.004-.088v73.768l23.885-.088v.088l37.72-.132.133-4.275h-51.734v-69.273zm103.16 73.68l17.715-.044v.044l40.542-.132.44-4.275H483.31V309.58h41.511l.22-4.186h-41.73v-29.966h48.693l.353-4.495h-59.05v73.68zm122.705-5.068c-1.158-1.42-2.41-2.991-3.761-4.717a436.463 436.463 0 0 1-3.818-4.94l-16.391-22.344c6.063-.895 10.741-3.03 14.033-6.399 3.297-3.516 4.94-7.93 4.94-13.246 0-2.995-.67-5.8-2.018-8.421-1.347-2.621-3.072-4.605-5.164-5.952a14.976 14.976 0 0 0-5.616-2.023c-1.05-.296-2.414-.482-4.097-.559a140.71 140.71 0 0 0-6.007-.112h-18.19v73.653h9.88V306.76l26.5 37.612 13.698.112a667.24 667.24 0 0 0-3.99-4.94zM559.8 304.85v-29.754h5.617c4.94 0 8.607 1.2 11.004 3.593 2.543 2.548 3.778 6.214 3.705 11.004 0 4.79-1.274 8.534-3.817 11.228-2.621 2.62-6.253 3.929-10.892 3.929h-5.616z" fill="#515151"/></svg>